<?xml version="1.0" encoding="UTF-8" standalone="no"?>
<!-- Created with Inkscape (http://www.inkscape.org/) -->

<svg
   xmlns:dc="http://purl.org/dc/elements/1.1/"
   xmlns:cc="http://creativecommons.org/ns#"
   xmlns:rdf="http://www.w3.org/1999/02/22-rdf-syntax-ns#"
   xmlns:svg="http://www.w3.org/2000/svg"
   xmlns="http://www.w3.org/2000/svg"
   xmlns:sodipodi="http://sodipodi.sourceforge.net/DTD/sodipodi-0.dtd"
   xmlns:inkscape="http://www.inkscape.org/namespaces/inkscape"
   id="svg2"
   version="1.1"
   inkscape:version="0.91 r13725"
   xml:space="preserve"
   width="485"
   height="310.83374"
   viewBox="0 0 485 310.83374"
   sodipodi:docname="vt_epscor_logo.svg"
   inkscape:export-filename="C:\Users\sexler\Downloads\test2.png"
   inkscape:export-xdpi="19.100241"
   inkscape:export-ydpi="19.100241"><metadata
     id="metadata8"><rdf:RDF><cc:Work
         rdf:about=""><dc:format>image/svg+xml</dc:format><dc:type
           rdf:resource="http://purl.org/dc/dcmitype/StillImage" /><dc:title></dc:title></cc:Work></rdf:RDF></metadata><defs
     id="defs6"><clipPath
       clipPathUnits="userSpaceOnUse"
       id="clipPath24"><path
         d="m 0,248.667 388,0 L 388,0 0,0 0,248.667 Z"
         id="path26"
         inkscape:connector-curvature="0" /></clipPath></defs><sodipodi:namedview
     pagecolor="#ffffff"
     bordercolor="#666666"
     borderopacity="1"
     objecttolerance="10"
     gridtolerance="10"
     guidetolerance="10"
     inkscape:pageopacity="0"
     inkscape:pageshadow="2"
     inkscape:window-width="732"
     inkscape:window-height="480"
     id="namedview4"
     showgrid="false"
     inkscape:zoom="0.70309278"
     inkscape:cx="242.5"
     inkscape:cy="155.41687"
     inkscape:window-x="771"
     inkscape:window-y="224"
     inkscape:window-maximized="0"
     inkscape:current-layer="g10" /><g
     id="g10"
     inkscape:groupmode="layer"
     inkscape:label="vt_epscor_logo"
     transform="matrix(1.25,0,0,-1.25,0,310.83375)"><g
       id="g12"
       transform="translate(36.2148,111.4087)"><path
         d="M 0,0 6.158,-14.141 12.315,0 l 3.139,0 -8.818,-18.893 -2.571,0 L -4.783,0 0,0 Z"
         style="fill:#007654;fill-opacity:1;fill-rule:nonzero;stroke:none"
         id="path14"
         inkscape:connector-curvature="0" /></g><g
       id="g16"
       transform="translate(71.124,111.4087)"><path
         d="m 0,0 0,-2.318 -9.326,0 0,-5.668 8.699,0 0,-2.233 -8.699,0 0,-6.269 9.446,0 0,-2.405 -13.721,0 0,18.893 L 0,0 Z"
         style="fill:#007654;fill-opacity:1;fill-rule:nonzero;stroke:none"
         id="path18"
         inkscape:connector-curvature="0" /></g><g
       id="g20"><g
         id="g22"
         clip-path="url(#clipPath24)"><g
           id="g28"
           transform="translate(82.21,109.2046)"><path
             d="m 0,0 0,-6.498 1.495,0 c 1.823,0 5.739,-0.143 5.739,3.493 C 7.234,0.115 4.304,0 1.704,0 L 0,0 Z m 2.123,2.204 c 2.69,0 4.394,-0.028 6.217,-0.629 1.674,-0.515 3.318,-1.918 3.318,-4.179 0,-3.207 -3.079,-4.724 -5.74,-5.21 l 7.802,-8.874 -5.141,0 -6.636,8.215 -1.943,0 0,-8.215 -4.274,0 0,18.892 6.397,0 z"
             style="fill:#007654;fill-opacity:1;fill-rule:nonzero;stroke:none"
             id="path30"
             inkscape:connector-curvature="0" /></g><g
           id="g32"
           transform="translate(106.6279,111.4087)"><path
             d="m 0,0 5.918,-13.826 5.8,13.826 5.35,0 0,-18.893 -4.125,0 0,15.945 -6.636,-15.945 -2.092,0 -6.636,15.687 0,-15.687 -2.93,0 L -5.351,0 0,0 Z"
             style="fill:#007654;fill-opacity:1;fill-rule:nonzero;stroke:none"
             id="path34"
             inkscape:connector-curvature="0" /></g><g
           id="g36"
           transform="translate(135.1987,101.8765)"><path
             d="m 0,0 c 0,-5.295 2.361,-7.528 5.679,-7.528 4.215,0 5.71,3.979 5.71,7.729 0,3.778 -1.136,7.471 -5.56,7.471 C 1.973,7.672 0,4.924 0,0.029 L 0,0 Z m -4.633,0 c 0,6.498 4.782,9.79 10.492,9.79 4.424,0 10.163,-2.004 10.163,-9.389 0,-6.212 -4.125,-10.047 -10.492,-10.047 -6.636,0 -10.163,4.236 -10.163,9.618 l 0,0.028 z"
             style="fill:#007654;fill-opacity:1;fill-rule:nonzero;stroke:none"
             id="path38"
             inkscape:connector-curvature="0" /></g><g
           id="g40"
           transform="translate(160.5723,111.4087)"><path
             d="m 0,0 12.136,-13.139 0,13.139 2.929,0 0,-18.893 -2.66,0 -12.136,13.14 0,-13.14 -2.929,0 L -2.66,0 0,0 Z"
             style="fill:#007654;fill-opacity:1;fill-rule:nonzero;stroke:none"
             id="path42"
             inkscape:connector-curvature="0" /></g><g
           id="g44"
           transform="translate(199.0391,111.4087)"><path
             d="m 0,0 0,-2.29 -6.607,0 0,-16.603 -4.274,0 0,16.603 -6.606,0 0,2.29 L 0,0 Z"
             style="fill:#007654;fill-opacity:1;fill-rule:nonzero;stroke:none"
             id="path46"
             inkscape:connector-curvature="0" /></g><g
           id="g48"
           transform="translate(95.6597,24.3115)"><path
             d="m 0,0 -38.128,0 0,56.011 37.799,0 0,-7.216 -25.651,0 0,-16.296 23.924,0 0,-6.964 -23.924,0 0,-18.065 L 0,7.47 0,0 Z"
             style="fill:#007654;fill-opacity:1;fill-rule:nonzero;stroke:none"
             id="path50"
             inkscape:connector-curvature="0" /></g><g
           id="g52"
           transform="translate(115.9673,54.7881)"><path
             d="M 0,0 6.299,0 C 6.52,0 6.768,-0.003 7.04,-0.006 7.369,-0.01 7.732,-0.015 8.124,-0.015 c 3.181,0 12.86,0 12.86,9.848 0,8.822 -8.025,8.822 -13.884,8.822 L 0,18.655 0,0 Z m 0,-30.477 -12.148,0 0,56.011 18.858,0 c 9.391,0 14.033,-0.224 19.068,-2.375 4.97,-2.13 8.255,-7.113 8.177,-12.401 C 33.795,-6.885 15.234,-6.885 8.247,-6.885 L 0,-6.88 0,-30.477 Z"
             style="fill:#007654;fill-opacity:1;fill-rule:nonzero;stroke:none"
             id="path54"
             inkscape:connector-curvature="0" /></g><g
           id="g56"
           transform="translate(171.4619,23.4688)"><path
             d="m 0,0 c -6.378,0 -11.892,1.265 -17.352,3.981 l -0.163,0.081 2.693,6.589 0.183,-0.079 c 4.21,-1.812 8.479,-3.439 14.392,-3.439 6.851,0 9.917,3.288 9.917,6.547 0,3.618 -2.619,5.563 -10.102,10.199 l -3.696,2.189 c -7.244,4.505 -13.744,9.163 -13.744,16.602 0,8.799 8.601,14.942 20.914,14.942 4.969,0 9.861,-0.912 14.54,-2.71 l 0.177,-0.069 -2.347,-6.682 -0.184,0.065 c -4.803,1.669 -9.359,2.264 -12.021,2.264 -5.864,0 -9.506,-2.251 -9.506,-5.873 0,-3.194 2.992,-5.085 8.952,-8.851 L 6.512,33.484 C 14.375,28.582 21.161,24.351 21.161,15.87 21.161,8.227 14.539,0 0,0"
             style="fill:#007654;fill-opacity:1;fill-rule:nonzero;stroke:none"
             id="path58"
             inkscape:connector-curvature="0" /></g><g
           id="g60"
           transform="translate(225.0674,23.4688)"><path
             d="m 0,0 c -17.476,0 -29.218,11.458 -29.218,28.512 0,17.407 12.238,29.1 30.451,29.1 5.508,0 11.317,-1.018 15.938,-2.794 l 0.18,-0.069 -2.434,-6.594 -0.388,0.128 C 12.361,48.996 7.85,50.48 2.631,50.48 c -9.047,0 -18.714,-5.682 -18.714,-21.631 0,-20.15 14.072,-21.716 18.386,-21.716 4.696,0 8.703,1.531 12.333,3.184 l 0.183,0.084 2.784,-6.599 -0.176,-0.078 C 14.463,2.423 8.946,0 0,0"
             style="fill:#007654;fill-opacity:1;fill-rule:nonzero;stroke:none"
             id="path62"
             inkscape:connector-curvature="0" /></g><g
           id="g64"
           transform="translate(267.8389,61.2236)"><path
             d="m 0,0 c -7.453,0 -11.232,-5.351 -11.232,-15.901 l 0,-0.084 c 0,-6.79 1.13,-15.817 10.904,-15.817 7.503,0 11.15,5.339 11.15,16.323 C 10.822,-5.208 7.181,0 0,0 m -0.822,-37.755 c -13.69,0 -22.887,8.545 -22.887,21.264 l 0,0.085 c 0,13.583 9.306,22.359 23.709,22.359 14.32,0 23.216,-8.18 23.216,-21.349 0,-13.583 -9.436,-22.359 -24.038,-22.359"
             style="fill:#007654;fill-opacity:1;fill-rule:nonzero;stroke:none"
             id="path66"
             inkscape:connector-curvature="0" /></g><g
           id="g68"
           transform="translate(309.2129,54.7041)"><path
             d="m 0,0 5.101,-0.002 c 7.123,0 14.405,1.198 14.405,10.088 0,8.003 -6.132,8.654 -13.538,8.654 L 0,18.739 0,0 Z m 37.955,-30.393 -14.652,0 -0.059,0.078 -18.193,24.109 -5.051,0 0,-24.187 -12.146,0 0,56.011 17.789,0 c 7.366,0 12.135,-0.09 17.165,-1.866 4.472,-1.473 9.256,-5.527 9.256,-12.486 C 32.064,0.063 20.51,-3.35 16.441,-4.199 l 21.514,-26.194 z"
             style="fill:#007654;fill-opacity:1;fill-rule:nonzero;stroke:none"
             id="path70"
             inkscape:connector-curvature="0" /></g><g
           id="g72"
           transform="translate(98.6133,215.9067)"><path
             d="m 0,0 c -22.344,-14.927 -27.837,-30.261 -50.414,-43.38 -9.005,-5.234 -23.936,-14.256 -24.903,-16.297 -0.969,-2.042 0.352,-2.333 1.368,-2.239 2.436,0.226 11.889,2.125 17.701,4.154 13.809,4.824 22.474,11.877 29.912,18.698 21.969,20.147 39.328,35.999 61.788,53.751 C 26.801,15.967 16.732,11.179 0,0"
             style="fill:#007654;fill-opacity:1;fill-rule:nonzero;stroke:none"
             id="path74"
             inkscape:connector-curvature="0" /></g><g
           id="g76"
           transform="translate(179.5244,172.3389)"><path
             d="m 0,0 c 11.133,1.792 16.229,-4.238 24.255,-5.238 4.785,-0.598 8.068,-0.628 12.274,0.069 8.352,1.377 13.58,5.174 19.367,9.128 9.532,6.515 22.558,16.622 26.927,20.362 4.366,3.739 8.515,6.953 7.249,8.776 C 87.496,36.808 76.216,35.894 69.697,30.135 66.882,27.649 57.476,19.259 48.133,11.896 41.287,17.429 17.06,34.286 7.209,35.04 -4.989,35.979 -8.514,27.709 -11.334,28.551 c -2.819,0.843 -8.925,8.079 -14.008,12.349 -5.741,4.829 -14.987,13.316 -21.299,11.303 -2.068,-0.658 18.702,-25.773 28.455,-30.989 7.948,-4.247 13.815,-0.223 18.662,5.19 1.829,2.045 4.638,6.061 11.659,0.291 C 15.114,24.248 26.287,11.531 37.563,4.118 34.853,2.319 32.429,0.921 30.529,0.173 18.801,1.988 9.676,7.93 -2.363,6.704 -11.136,5.812 -17.946,1.197 -23.545,-2.821 c -1.008,-0.725 -5.4,-3.732 -11.324,-8.504 -2.146,-0.44 -4.46,-0.173 -7.82,0.302 -6.329,0.894 -12.263,7.806 -18.659,8.503 -5.895,0.642 -13.017,-2.709 -17.888,-5.868 -5.052,-3.275 -12.316,-3.856 -17.569,-0.849 -3.65,2.089 -12.213,-3.506 -7.5,-6.204 5.82,-3.331 11.784,-3.893 18.303,-2.663 2.935,0.554 5.769,1.549 8.408,3.083 3.618,2.101 9.271,6.898 13.706,6.168 4.622,-0.761 13.204,-7.689 22.502,-7.95 -6.53,-5.723 -13.902,-12.931 -20.451,-21.176 -2.686,-3.381 -5.849,-7.681 -3.49,-10.492 1.851,-2.203 5.761,2.497 8.313,4.997 4.902,4.8 24.607,25.452 39.804,35.313 C -11.45,-4.424 -4.903,-0.791 0,0"
             style="fill:#007654;fill-opacity:1;fill-rule:nonzero;stroke:none"
             id="path78"
             inkscape:connector-curvature="0" /></g><g
           id="g80"
           transform="translate(361.6113,129.3574)"><path
             d="m 0,0 c -11.646,6.206 -20.806,11.563 -29.543,21.055 6.479,0.787 18.003,0.781 17.609,3.487 -0.394,2.706 -14.339,0.104 -21.359,0.513 -3.5,2.625 -9.965,9.368 -13.738,13.862 -5.755,6.856 -10.829,13.156 -16.176,19.451 -4.443,5.228 -11.345,12.476 -19.492,13.335 -3.251,0.342 -8.691,-2.421 -7.008,-4.334 7.762,-8.805 38.008,-39.12 40.613,-42.295 -2.961,-0.128 -4.677,-0.383 -8.977,-1.856 -3.223,-1.226 -5.492,-4.956 -9.01,-5.135 -6.469,-0.33 -16.753,14.514 -30.751,11.236 -8.202,-1.92 -14.192,-10.356 -21.569,-11.544 -14.664,-2.363 -16.557,10.894 -27.92,12.742 -11.1,1.803 -22.987,-0.862 -29.687,-7.227 -6.702,-6.365 -10.235,-8.656 -17.153,-9.769 -6.526,-1.053 -16.033,5.286 -17.804,1.425 -1.387,-3.024 9.471,-7.573 18.062,-6.847 13.224,1.119 19.679,6.85 27.861,13.107 2.245,1.716 5.086,3.64 7.799,4.076 12.553,2.022 20.262,-9.691 32.265,-11.035 9.524,-1.069 15.51,1.813 21.173,4.979 3.074,1.717 8.552,6.378 11.907,6.166 3.351,-0.212 10.626,-9.137 14.991,-10.559 17.682,-5.75 19.025,3.66 21.527,5.116 4.045,2.361 11.266,1.96 13.051,0.412 C -24.668,4.18 -3.528,-4.624 0.509,-3.692 3.505,-2.999 1.994,-1.151 0,0"
             style="fill:#007654;fill-opacity:1;fill-rule:nonzero;stroke:none"
             id="path82"
             inkscape:connector-curvature="0" /></g></g></g></g></svg>